<mxfile host="app.diagrams.net" modified="2023-05-20T22:31:19.268Z" agent="Mozilla/5.0 (Windows NT 10.0; Win64; x64) AppleWebKit/537.36 (KHTML, like Gecko) Chrome/113.0.0.0 Safari/537.36" version="21.3.2" etag="SS-0Pr8vRDRETt0-rDcl" type="github">
  <diagram name="Page-1" id="Zuq5T44314Sm2wmU77vS">
    <mxGraphModel>
      <root>
        <mxCell id="0" />
        <mxCell id="1" parent="0" />
      </root>
    </mxGraphModel>
  </diagram>
</mxfile>
